# Blender v2.78 (sub 0) OBJ File: 'wall_block.blend'
# www.blender.org
mtllib something_else.mtl
o Cube
v 1.000000 -1.000000 -1.000000
v 1.000000 -1.000000 1.000000
v -1.000000 -1.000000 1.000000
v -1.000000 -1.000000 -1.000000
v 1.645025 0.563759 -1.645024
v 1.645023 0.563759 1.645025
v -1.645025 0.563759 1.645024
v -1.645024 0.563759 -1.645025
v 1.645025 2.788877 -1.645024
v 1.645023 2.788877 1.645025
v -1.645024 2.788877 -1.645025
v -1.645025 2.788877 1.645024
v 0.969169 3.708593 -0.969168
v 0.969168 3.708593 0.969169
v -0.969168 3.708593 -0.969168
v -0.969169 3.708593 0.969168
vt 0.9726 0.0924
vt 0.6913 0.4257
vt 0.6913 0.0924
vt 0.8807 0.8994
vt 0.6250 0.8994
vt 0.6250 0.8994
vt 0.8807 0.8994
vt 0.6250 0.5964
vt 0.8807 0.5964
vt 0.6250 0.5964
vt 0.8807 0.8994
vt 0.6250 0.8994
vt 0.6250 0.5964
vt 0.8807 0.5964
vt 0.6250 0.5964
vt 0.8807 0.8994
vt 0.6250 0.8994
vt -1.4593 0.8994
vt 2.9650 0.8994
vt -1.4593 0.8994
vt 0.6250 0.8994
vt 0.8807 0.5964
vt 0.8807 0.5964
vt 0.6250 0.8994
vt 0.6250 0.8994
vt 0.3694 0.9281
vt 0.0882 0.5948
vt 0.3694 0.5948
vt -2.2284 0.8994
vt 3.7340 0.8994
vt 3.7340 0.8994
vt 2.7612 0.5964
vt -1.2555 0.5964
vt 2.7612 0.5964
vt 3.3372 0.8994
vt -1.8315 0.8994
vt -1.8315 0.8994
vt 0.9726 0.4257
vt 0.8807 0.8994
vt 0.8807 0.5964
vt 2.9650 0.8994
vt 0.8807 0.8994
vt 0.6250 0.5964
vt 0.8807 0.8994
vt 0.0882 0.9281
vt -2.2284 0.8994
vt -1.2555 0.5964
vt 3.3372 0.8994
vn 0.0000 -1.0000 0.0000
vn -1.0000 0.0000 -0.0000
vn 0.9244 -0.3813 0.0000
vn 0.0000 -0.3813 0.9244
vn -0.9244 -0.3813 -0.0000
vn 0.0000 -0.3813 -0.9244
vn -0.8058 0.5922 -0.0000
vn 0.0000 0.0000 -1.0000
vn -0.0000 0.0000 1.0000
vn 1.0000 0.0000 0.0000
vn 0.0000 1.0000 0.0000
vn 0.0000 0.5922 -0.8058
vn -0.0000 0.5922 0.8058
vn 0.8058 0.5922 0.0000
usemtl Material.001
s off
f 2/1/1 4/2/1 1/3/1
f 7/4/2 11/5/2 8/6/2
f 5/7/3 2/8/3 1/9/3
f 6/10/4 3/11/4 2/12/4
f 7/4/5 4/13/5 3/14/5
f 1/15/6 8/16/6 5/17/6
f 11/18/7 16/19/7 15/20/7
f 8/16/8 9/21/8 5/17/8
f 6/10/9 12/22/9 7/23/9
f 5/7/10 10/24/10 6/25/10
f 15/26/11 14/27/11 13/28/11
f 11/29/12 13/30/12 9/31/12
f 12/32/13 14/33/13 16/34/13
f 9/35/14 14/36/14 10/37/14
f 2/1/1 3/38/1 4/2/1
f 7/4/2 12/39/2 11/5/2
f 5/7/3 6/25/3 2/8/3
f 6/10/4 7/23/4 3/11/4
f 7/4/5 8/6/5 4/13/5
f 1/15/6 4/40/6 8/16/6
f 11/18/7 12/41/7 16/19/7
f 8/16/8 11/42/8 9/21/8
f 6/10/9 10/43/9 12/22/9
f 5/7/10 9/44/10 10/24/10
f 15/26/11 16/45/11 14/27/11
f 11/29/12 15/46/12 13/30/12
f 12/32/13 10/47/13 14/33/13
f 9/35/14 13/48/14 14/36/14
